<?xml version="1.0" standalone="no"?>
<!DOCTYPE svg PUBLIC "-//W3C//DTD SVG 20010904//EN"
 "http://www.w3.org/TR/2001/REC-SVG-20010904/DTD/svg10.dtd">
<svg version="1.0" xmlns="http://www.w3.org/2000/svg"
 width="920.000000pt" height="920.000000pt" viewBox="0 0 920.000000 920.000000"
 preserveAspectRatio="xMidYMid meet">

<g transform="translate(0.000000,920.000000) scale(0.100000,-0.100000)"
fill="#000000" stroke="none">
<path d="M2840 5775 c-428 -96 -729 -391 -832 -815 -26 -107 -29 -328 -5 -435
49 -221 161 -417 326 -570 219 -203 554 -307 846 -262 265 41 485 161 650 354
161 189 255 434 255 670 0 62 -3 76 -24 100 l-24 28 -514 0 c-512 0 -513 0
-555 -22 -102 -55 -148 -186 -107 -306 20 -59 87 -120 149 -136 25 -6 134 -11
262 -11 l217 0 -54 -55 c-61 -61 -158 -117 -246 -140 -75 -19 -233 -19 -307 0
-174 45 -312 181 -378 372 -26 77 -35 218 -19 311 48 289 348 501 638 452 67
-11 112 -31 319 -140 71 -37 167 -50 226 -31 47 16 114 89 123 135 10 55 0
146 -21 191 -29 61 -131 154 -222 202 -43 23 -130 59 -193 79 -110 35 -122 37
-280 40 -119 3 -183 0 -230 -11z"/>
<path d="M4320 5073 c-46 -23 -60 -37 -82 -82 l-28 -55 0 -521 c0 -572 0 -574
60 -647 109 -132 315 -86 372 83 7 22 12 146 14 344 2 171 3 320 3 332 2 51
85 114 171 128 109 17 181 74 207 164 29 102 -16 204 -110 250 -57 28 -151 28
-262 0 l-84 -21 -32 22 c-23 17 -50 24 -103 28 -63 3 -77 1 -126 -25z"/>
<path d="M5585 5085 c-218 -60 -377 -184 -469 -367 -62 -124 -79 -208 -73
-363 6 -141 25 -212 86 -315 91 -152 224 -259 396 -319 91 -32 110 -35 215
-35 91 -1 132 4 193 22 147 42 262 119 353 235 379 485 58 1160 -550 1156 -56
0 -123 -6 -151 -14z m244 -452 c105 -33 181 -134 181 -240 0 -69 -49 -165
-107 -209 -84 -64 -219 -68 -305 -8 -82 58 -129 174 -108 270 35 157 182 238
339 187z"/>
<path d="M1473 5055 c-64 -32 -88 -64 -108 -144 -14 -52 -16 -132 -13 -553 4
-515 4 -524 48 -584 54 -75 250 -84 331 -17 66 56 64 38 67 580 4 613 -1 644
-102 708 -69 42 -152 46 -223 10z"/>
<path d="M2032 3408 c-25 -25 -10 -66 78 -203 l90 -140 0 -108 c0 -103 8 -142
34 -159 19 -13 45 -9 66 12 18 18 20 33 20 137 l0 116 89 136 c48 75 91 146
95 158 10 31 -13 63 -46 63 -31 0 -48 -20 -132 -157 -32 -51 -60 -93 -64 -93
-4 0 -34 46 -67 101 -33 56 -68 112 -78 125 -20 26 -65 32 -85 12z"/>
<path d="M3152 3389 c-74 -36 -114 -89 -137 -175 -20 -79 -19 -149 5 -225 25
-82 66 -130 138 -166 48 -24 69 -28 137 -28 183 1 283 102 293 296 11 208 -98
329 -294 329 -70 0 -89 -4 -142 -31z m199 -69 c75 -21 119 -99 119 -213 0
-135 -66 -217 -174 -217 -56 0 -94 18 -129 60 -53 62 -63 189 -23 276 41 89
111 121 207 94z"/>
<path d="M3674 3396 c-15 -24 -12 -39 50 -293 57 -228 70 -271 92 -290 30 -27
51 -29 82 -8 23 17 42 73 108 323 21 78 41 137 45 130 3 -7 27 -92 52 -188 61
-235 68 -252 98 -269 34 -19 75 -8 93 27 12 25 116 438 131 523 5 26 2 40 -10
52 -23 24 -72 22 -85 -2 -11 -21 -90 -368 -90 -396 0 -29 -18 -15 -28 23 -106
402 -103 395 -164 390 -30 -2 -46 -10 -60 -29 -11 -14 -42 -110 -69 -214 -43
-164 -59 -216 -59 -192 0 25 -93 413 -101 424 -19 22 -67 16 -85 -11z"/>
<path d="M4540 3400 c-19 -19 -20 -33 -20 -295 0 -262 1 -276 20 -295 24 -24
39 -25 66 -6 17 13 19 31 24 218 l5 203 122 -190 c67 -105 131 -200 143 -212
39 -42 101 -38 118 8 4 10 7 140 7 288 -1 209 -4 272 -14 285 -16 19 -66 21
-78 4 -4 -7 -10 -105 -13 -218 l-5 -205 -139 210 c-76 116 -143 213 -150 217
-21 14 -66 8 -86 -12z"/>
<path d="M6267 3406 c-115 -41 -178 -142 -179 -287 -1 -181 79 -292 228 -320
150 -28 273 31 333 161 34 74 36 220 4 291 -51 114 -142 169 -276 169 -40 -1
-89 -7 -110 -14z m193 -98 c66 -34 94 -95 93 -203 0 -92 -24 -150 -76 -189
-41 -30 -154 -30 -194 0 -77 58 -104 219 -53 319 29 57 89 95 150 95 20 0 56
-10 80 -22z"/>
<path d="M6960 3411 c-69 -22 -133 -75 -163 -136 -71 -145 -30 -354 86 -432
124 -83 302 -63 397 45 55 62 73 129 68 246 -9 186 -100 279 -278 283 -47 1
-96 -1 -110 -6z m157 -92 c75 -28 116 -103 116 -210 0 -139 -55 -210 -168
-217 -50 -3 -66 0 -95 20 -19 13 -46 44 -60 68 -21 38 -25 58 -25 130 0 72 4
92 25 130 40 73 132 108 207 79z"/>
<path d="M1366 3394 c-14 -13 -16 -54 -16 -293 0 -263 1 -279 20 -296 27 -24
65 -13 77 22 5 16 9 124 8 241 -1 117 2 209 5 205 4 -4 31 -105 61 -223 55
-222 72 -260 117 -260 50 0 62 27 122 266 l59 229 0 -217 c1 -119 5 -228 11
-242 12 -34 54 -44 80 -21 19 17 20 33 20 296 0 239 -2 280 -16 293 -20 21
-136 22 -156 2 -8 -7 -35 -96 -62 -197 -26 -101 -51 -187 -55 -192 -4 -4 -15
26 -25 65 -45 179 -79 295 -92 316 -13 19 -23 22 -79 22 -44 0 -68 -5 -79 -16z"/>
<path d="M5606 3388 c-14 -19 -16 -63 -16 -281 0 -254 4 -289 34 -309 19 -13
45 -9 66 12 18 18 20 33 20 140 l0 120 111 0 c120 0 149 8 149 43 0 41 -17 47
-142 47 l-118 0 0 80 0 80 131 0 c139 0 169 8 169 43 0 44 -14 47 -206 47
-178 0 -183 -1 -198 -22z"/>
<path d="M7487 3392 c-15 -16 -17 -51 -17 -283 0 -214 3 -269 14 -285 13 -17
28 -19 163 -19 139 0 152 2 198 25 56 29 108 96 126 162 17 63 14 189 -6 248
-23 68 -94 144 -150 159 -22 6 -101 11 -176 11 -119 0 -138 -2 -152 -18z m311
-101 c85 -60 86 -291 2 -366 -18 -16 -39 -21 -119 -23 l-97 -4 2 209 c1 114 2
210 3 212 0 2 41 1 90 -1 69 -4 96 -10 119 -27z"/>
</g>
</svg>
